#!OML:ASF E:/inclinewalkrobotboard/Project1/Captureday1/Session1/subject1.ASF
:FULLY-SPECIFIED
:DEGREES
288
root 0 0 0 1.7464557037263442 -10.731599457086347 0.7832206586949773
lowerback -0.01745345388404318 -1.5399129267178946 -2.5681085915335973
upperback -0.6679548294252884 -2.018488798972995 1.8418498186049357
thorax -0.49333279687210674 -0.9866831461990446 3.294398556053298
lowerneck -24.366373134853042 -1.6113222687731237 -7.616547755709989
upperneck 28.568637900509586 0.35679598866409223 1.861313625339018
head 13.707670839991913 -0.6114319339674626 2.20888515897377
rclavicle -1.1084217498129831E-14 1.2056738298034701E-15
rhumerus -30.90046900967187 0.1651187599388999 -81.88571006374752
rradius 31.681052458856414
rwrist 18.29466694826746
rhand -18.598758584509582 9.214264228592757
rfingers 7.12501999999994
rthumb 7.6928028760231 -20.672244142676394
lclavicle -2.268212634211489E-15 1.0926110656116838E-16
lhumerus -20.14846481555928 -2.1730526683412594 90.7923845178198
lradius 64.21669749602019
lwrist 1.4892196945171974
lhand -28.725100258168595 20.48661468335547
lfingers 7.125020000000028
lthumb -2.0772760255279197 50.45844115937343
rfemur 13.527152272085077 6.645844053825307 33.37999713298008
rtibia 35.97570381382158
rfoot -13.799708058242949 -2.652944338016222
rtoes -7.081575209181147
lfemur -29.577384270683474 -5.21876229746403 -9.927698912011458
ltibia 19.999572256088882
lfoot -3.627387075152278 3.216113863486829
ltoes -2.1800695426263506
289
root 0 0 0 1.735094137267108 -10.774320716801373 0.7939119825520775
lowerback -0.04396189191890687 -1.5497185805652267 -2.5767014713039336
upperback -0.6873238865038697 -2.0312246431528145 1.8175152885398949
thorax -0.49586758282741683 -0.9916744237917493 3.2728872156238955
lowerneck -24.42962563541229 -1.6180475829251595 -7.613807333163214
upperneck 28.628125265492347 0.36211132696023207 1.8295207323809362
head 13.743788596271205 -0.6148261366692476 2.197546144171195
rclavicle -1.1417965869347513E-14 1.1630491983979939E-15
rhumerus -31.001903028396878 0.13407175700304386 -81.69789957277636
rradius 31.542330397503097
rwrist 18.337189828927777
rhand -18.57985076936083 9.230849982377654
rfingers 7.125019999999938
rthumb 7.710246894621568 -20.64877879997393
lclavicle -3.339728312826539E-15 3.983182010708181E-16
lhumerus -19.667150206672694 -1.4785743834467957 90.58451243656361
lradius 64.0227426428163
lwrist 1.3752176976565607
lhand -28.77568720796921 20.50169142285702
lfingers 7.125020000000028
lthumb -2.1235506440667633 50.46464480986925
rfemur 8.638834223656355 4.623208400331523 28.88981885487003
rtibia 47.220445584928484
rfoot -3.644915385504346 0.08291901273625157
rtoes -3.8270288959845677
lfemur -28.0312230466863 -4.725705843464382 -11.811280208276091
ltibia 23.36600656564063
lfoot -2.4059640090867003 1.0502277922189567
ltoes 0.46381066066356524
290
root 0 0 0 1.7323579896138488 -10.839483551049705 0.8187807894177458
lowerback -0.0995619716220082 -1.5708691211235017 -2.5978587708838266
upperback -0.7037409186168964 -2.0596712215133883 1.7800480694688599
thorax -0.47848294455750917 -1.0046458478308764 3.245097417378578
lowerneck -24.562211228926156 -1.6346911715282968 -7.630318236705689
upperneck 28.62117521814782 0.3602969996900711 1.8160450298804265
head 13.77084130324687 -0.6170135756163001 2.1920269174182136
rclavicle -1.1273364267669196E-14 8.96629483964765E-16
rhumerus -31.200436724871427 -0.41723375053668654 -81.5181359939333
rradius 31.36999984329715
rwrist 18.5089469906511
rhand -18.438942532725143 9.180836066179044
rfingers 7.125019999999936
rthumb 7.844681065394294 -20.68413951666833
lclavicle -3.3549958168721865E-15 5.250970936590947E-16
lhumerus -19.200590511156395 -0.8918053466825855 90.43935732789058
lradius 63.871963483124865
lwrist 1.2118204540888482
lhand -28.87721921559641 20.46729003266548
lfingers 7.125020000000027
lthumb -2.220062827276309 50.4189422927474
rfemur -1.110570395484265 3.177074879237873 25.020076421470286
rtibia 58.53283083420219
rfoot 6.882757091802116 0.7641555323035152
rtoes 4.845438049285036
lfemur -24.007409069596427 -3.7526163508273527 -15.83124982657733
ltibia 30.410307257645357
lfoot -1.4091118130601412 -3.095504147303207
ltoes 4.929880689521321
291
root 0 0 0 1.7583836968774829 -10.897717852867737 0.8441885032874867
lowerback -0.16971273567551126 -1.603868631195655 -2.6287194033458907
upperback -0.6816517029008885 -2.103744689211118 1.7348572231162744
thorax -0.41482571909037713 -1.027520932224199 3.2146350068934693
lowerneck -24.632710903616392 -1.6411788384721437 -7.690883711879288
upperneck 28.66873918355134 0.35899472860494797 1.83702458932434
head 13.795925844618228 -0.6122675223143956 2.2041586588210698
rclavicle -9.608221319302722E-15 8.035484719681273E-16
rhumerus -31.620438410614156 -1.8002477799167274 -81.28201709381625
rradius 31.071558567751648
rwrist 18.908244341317268
rhand -18.124044316840852 9.068319430935382
rfingers 7.125019999999934
rthumb 8.147614026947204 -20.7770914026934
lclavicle -3.022986245048154E-15 5.482214198614838E-16
lhumerus -19.142558292243393 -1.1078073957051462 90.40267511777914
lradius 63.957485897811615
lwrist 1.2720070776452412
lhand -28.85955276575265 20.48161044699457
lfingers 7.125020000000025
lthumb -2.2048263500637795 50.437664408904624
rfemur -8.220035312853428 2.102729328290322 23.751643762559958
rtibia 65.40839243936026
rfoot 7.60359966986579 -2.0891649888336383
rtoes 11.374760957714068
lfemur -18.989238236885615 -3.00717108135923 -20.203338878156092
ltibia 32.6279203590679
lfoot -2.846650435020325 -4.322227253826102
ltoes 8.95362268953574
292
root 0 0 0 1.7954372136533656 -10.894398615905619 0.8554802064396968
lowerback -0.19170702234104753 -1.6231825965741262 -2.6587786302558856
upperback -0.6348329729592752 -2.1301182531582468 1.7107761446414287
thorax -0.3548048778125823 -1.042404650913199 3.2069741162748815
lowerneck -24.593375135654405 -1.6344194264230452 -7.757624706878748
upperneck 28.61501778992546 0.34848980893102677 1.9104191601724578
head 13.751257590806553 -0.5999277557630054 2.2326871785470312
rclavicle -6.0957824784530045E-15 1.2363864917184422E-15
rhumerus -32.17054145926292 -3.6173202327242646 -81.00702027895262
rradius 30.687528238426815
rwrist 19.425978191980175
rhand -17.724671241905032 8.945455300412055
rfingers 7.125019999999932
rthumb 8.533263715676167 -20.88486640658726
lclavicle -2.232377439011241E-15 1.0480231794841175E-15
lhumerus -19.324278448248037 -1.9266826104761785 90.35540083284174
lradius 64.30422913650956
lwrist 1.6017415707512144
lhand -28.695996595658332 20.722771143125108
lfingers 7.125020000000025
lthumb -2.051676507370673 50.698470297565294
rfemur -13.170959983390075 0.5892294461314078 21.38662522945963
rtibia 72.3157769323079
rfoot 2.3380714848879762 -5.148225972069284
rtoes 9.76335088286921
lfemur -13.884964222010929 -3.0795431343836164 -23.421382025358934
ltibia 29.815412219116126
lfoot -7.583928823046636 -2.6835995077142716
ltoes 9.95475245238361
293
root 0 0 0 1.8251350049066386 -10.861012960764718 0.8656291501646529
lowerback -0.1907177199864285 -1.6299749230004488 -2.691592384460464
upperback -0.6010268993321646 -2.1402739715571855 1.7090905917896684
thorax -0.3207001581748461 -1.0486290993193155 3.2243489182255947
lowerneck -24.57132134855874 -1.6355877843689424 -7.814673605949325
upperneck 28.341056767050844 0.31991370574691746 2.0221341449636343
head 13.633496329368473 -0.5870271808584048 2.2683280120456777
rclavicle -5.150420770024595E-15 1.1650516067695649E-15
rhumerus -32.62785734746173 -4.752881558297339 -80.68494605708342
rradius 30.34593607563087
rwrist 19.829515888705558
rhand -17.464723791458464 8.843397106226435
rfingers 7.125019999999933
rthumb 8.783977330872068 -20.977640188806483
lclavicle -1.7723710831898348E-15 1.102759983056523E-15
lhumerus -19.5046056537063 -2.787393236408668 90.45289761943847
lradius 64.59961025209734
lwrist 1.8354794161009846
lhand -28.66593719054429 20.93189299933732
lfingers 7.125020000000025
lthumb -2.0258311080041995 50.91900531570001
rfemur -20.868150391456233 -0.6474974714095101 20.82249070664164
rtibia 72.05740711304784
rfoot -2.805698088916728 -6.597500732714878
rtoes 6.747527211718765
lfemur -7.956199480087902 -3.433553321962775 -26.479920656851434
ltibia 25.080017769764595
lfoot -13.187265994411552 -0.3641128775773419
ltoes 9.58540945739273
